<svg width="31" height="31" viewBox="0 0 31 31" fill="none" xmlns="http://www.w3.org/2000/svg">
<path d="M10.5514 2.85846C12.1356 3.47967 13.667 4.30015 15.1104 5.3023C15.2747 5.41365 15.4625 5.47225 15.6502 5.47225C15.838 5.47225 16.0257 5.41365 16.19 5.3023C17.6334 4.30015 19.1648 3.47381 20.7491 2.8526C21.107 2.71195 21.3476 2.36032 21.3417 1.97352C21.3417 1.58673 21.1011 1.24096 20.7373 1.10616C17.5689 -0.0952431 13.7315 -0.0952431 10.569 1.10616C10.211 1.24096 9.9646 1.59259 9.9646 1.97352C9.9646 2.35445 10.1876 2.71781 10.5514 2.85846Z" fill="#FFB548"/>
<path d="M24.1587 2.86378C23.8594 2.65866 23.478 2.64108 23.1553 2.82276C21.4009 3.83076 19.7052 4.98529 18.1034 6.25702C17.8922 6.42697 17.7631 6.67898 17.7513 6.94856C17.7396 7.21814 17.8452 7.48187 18.0388 7.6694C21.3599 10.8282 25.96 20.5157 27.0162 24.9697C24.7278 21.1017 19.6231 12.0003 16.2845 8.88839C15.9265 8.55434 15.3633 8.55434 15.0053 8.88839C11.6608 12.0003 6.5737 21.1076 4.28536 24.9814C5.34152 20.5274 9.92992 10.8282 13.2509 7.6694C13.4504 7.48187 13.5561 7.21814 13.5443 6.94856C13.5326 6.67898 13.4035 6.42697 13.1923 6.25702C11.5904 4.98529 9.88885 3.83076 8.14033 2.82276C7.82935 2.64108 7.43622 2.65866 7.13698 2.86378C3.05905 5.67097 0.624023 10.2832 0.624023 15.206C0.624023 18.8044 1.92075 22.2738 4.28536 24.9814C7.11351 28.2984 11.2501 30.209 15.6449 30.209C20.0397 30.209 24.1822 28.3043 27.0162 24.9755C29.369 22.2797 30.6658 18.8103 30.6658 15.206C30.6658 10.2832 28.2307 5.67097 24.1587 2.86378Z" fill="#FFB548"/>
</svg>
